<svg width="611" height="205" viewBox="0 0 611 205" fill="none" xmlns="http://www.w3.org/2000/svg">
<rect x="260.134" y="52.3132" width="29.4224" height="27.521" rx="3.5" fill="#101828" stroke="#101828"/>
<rect x="318.127" y="52.3132" width="29.4224" height="27.521" rx="3.5" fill="#101828" stroke="#101828"/>
<rect x="333.338" y="127.419" width="29.4224" height="27.521" rx="3.5" fill="#101828" stroke="#101828"/>
<rect x="244.923" y="127.419" width="29.4224" height="27.521" rx="3.5" fill="#101828" stroke="#101828"/>
<rect x="265.838" y="106.978" width="76.4821" height="27.521" rx="3.5" fill="#101828" stroke="#101828"/>
<mask id="path-6-inside-1_1_45" fill="white">
<rect x="183.599" y="1.12638" width="243.297" height="203.874" rx="8"/>
</mask>
<rect x="183.599" y="1.12638" width="243.297" height="203.874" rx="8" stroke="#101828" stroke-width="60" mask="url(#path-6-inside-1_1_45)"/>
<rect x="0.5" y="0.5" width="40.6758" height="98.1209" rx="7.5" fill="#101828" stroke="#101828"/>
<rect x="97.3681" y="3.87911" width="40.6758" height="196.115" rx="7.5" fill="#101828" stroke="#101828"/>
<rect x="21.9011" y="115.516" width="40.6758" height="98.1209" rx="7.5" transform="rotate(-90 21.9011 115.516)" fill="#101828" stroke="#101828"/>
<rect x="472.451" y="0.5" width="40.6758" height="98.1209" rx="7.5" fill="#101828" stroke="#101828"/>
<rect x="569.319" y="3.87911" width="40.6758" height="196.115" rx="7.5" fill="#101828" stroke="#101828"/>
<rect x="493.852" y="115.516" width="40.6758" height="98.1209" rx="7.5" transform="rotate(-90 493.852 115.516)" fill="#101828" stroke="#101828"/>
</svg>
