<?xml version="1.0" encoding="UTF-8"?>
<svg version="1.1" xmlns="http://www.w3.org/2000/svg" width="1000" height="1000">
<path d="M0 0 C330 0 660 0 1000 0 C1000 330 1000 660 1000 1000 C670 1000 340 1000 0 1000 C0 670 0 340 0 0 Z " fill="#FEFEFE" transform="translate(0,0)"/>
<path d="M0 0 C3.32547584 1.44983873 5.51211838 3.26322574 8.06856918 5.82247353 C8.87423096 6.62415321 9.67989275 7.42583289 10.50996852 8.2518059 C11.82903221 9.57960812 11.82903221 9.57960812 13.17474365 10.93423462 C14.12234843 11.88096733 15.07039256 12.82726044 16.01883817 13.7731508 C18.62527452 16.37510998 21.22542502 18.98327294 23.82460713 21.59247589 C26.62803817 24.40453377 29.43723624 27.21081988 32.2457428 30.01780701 C37.11136692 34.8823818 41.97331213 39.7506087 46.83278656 44.62132645 C53.8587982 51.66358352 60.89031777 58.70031968 67.92319933 65.7357152 C79.33308589 77.14998036 90.73849781 88.56870588 102.14111328 99.99023438 C113.2185242 111.08599981 124.29803114 122.17966535 135.38037109 133.27050781 C136.06334219 133.95400435 136.74631328 134.63750089 137.44998047 135.34170945 C140.87621584 138.77055488 144.30249255 142.199359 147.72878981 145.6281426 C176.15893725 174.07902769 204.58183052 202.537151 233 231 C238.77260701 226.20454401 244.07882986 221.05447612 249.37019348 215.73660278 C250.2935626 214.81267695 251.21693173 213.88875112 252.16828173 212.93682754 C254.71620678 210.38726582 257.26101301 207.83461124 259.80531394 205.28143358 C262.55527234 202.52301266 265.30817781 199.76753576 268.0607605 197.01173401 C272.8247033 192.24150579 277.58691875 187.46955886 282.34806252 182.69653702 C289.23298608 175.79461704 296.12163754 168.89642708 303.01139148 161.99932931 C314.19201423 150.80677297 325.37112861 139.61271163 336.54858398 128.41699219 C337.21698918 127.74749687 337.88539437 127.07800156 338.57405426 126.38821851 C348.0749555 116.87168239 357.57437228 107.35366583 367.0732074 97.8350675 C367.74312855 97.16375303 368.4130497 96.49243857 369.10327148 95.80078125 C369.77237562 95.13028359 370.44147975 94.45978592 371.13085977 93.76897015 C382.27166026 82.60516712 393.41629323 71.44519922 404.56410044 60.2883929 C411.44167787 53.4049525 418.31596821 46.518261 425.1861157 39.62740485 C429.88667669 34.9131769 434.59079895 30.20252287 439.29779265 25.49471779 C442.01653991 22.77526389 444.73358469 20.05416126 447.44632912 17.32871819 C450.38044898 14.38093479 453.32215341 11.44084221 456.26472473 8.50149536 C457.12958758 7.63012471 457.99445042 6.75875407 458.88552123 5.86097825 C459.66895044 5.08091443 460.45237965 4.30085062 461.25954914 3.49714851 C461.93849179 2.81690436 462.61743443 2.1366602 463.3169511 1.43580258 C465 0 465 0 467 0 C468.35386936 1.65002828 469.68678142 3.3174387 471 5 C471.66 5.33 472.32 5.66 473 6 C473 6.66 473 7.32 473 8 C471.64564514 9.33558655 471.64564514 9.33558655 469.70336914 10.92993164 C464.09634772 15.70228168 458.94242117 20.91307084 453.74609375 26.12109375 C452.67585033 27.19066164 451.60545866 28.26008121 450.53492737 29.32936096 C448.30364087 31.55918224 446.07414943 33.7907784 443.84594727 36.02368164 C441.00968112 38.86564432 438.16894769 41.70309242 435.32684231 44.53921413 C433.11923667 46.74318226 430.91404779 48.94955619 428.70955086 51.15663338 C427.66384021 52.20300449 426.61740465 53.24865174 425.57018852 54.29351616 C424.0995965 55.7615287 422.6323143 57.23277761 421.16577148 58.70483398 C420.33496567 59.53643539 419.50415985 60.3680368 418.6481781 61.22483826 C416.6207771 63.34945582 414.69591443 65.49301312 412.78334808 67.71707249 C409.27513397 71.73654658 405.59838523 75.53936365 401.81825256 79.30200195 C401.13031835 79.9907906 400.44238413 80.67957924 399.73360342 81.38924026 C397.44984718 83.67463109 395.16255851 85.95645199 392.87524414 88.23828125 C391.22869744 89.88454562 389.58237143 91.53103073 387.93624878 93.17771912 C383.48242982 97.63182425 379.02554076 102.08284574 374.568084 106.53330994 C370.37744146 110.71832412 366.18911535 114.90565424 362.00077241 119.09296966 C353.70974758 127.38181066 345.41649619 135.66842015 337.12182617 143.95361328 C329.0685652 151.99768279 321.01636447 160.04281119 312.96557617 168.08935547 C312.46858697 168.58608194 311.97159778 169.08280842 311.4595483 169.59458721 C308.9660856 172.08674478 306.47264362 174.57892308 303.97921193 177.07111168 C283.32268439 197.71728744 262.66249776 218.35979922 242 239 C246.87427839 244.87264644 252.12568964 250.26372432 257.52914429 255.6493988 C258.49148955 256.61218077 259.45361477 257.57518273 260.41554034 258.53838402 C263.04491082 261.16997991 265.67737117 263.79846539 268.31036735 266.42643297 C271.15464085 269.26637398 273.99600937 272.1092189 276.83773804 274.95170593 C281.75680352 279.87129488 286.67769154 284.78905465 291.59983444 289.7055645 C298.71635902 296.81395002 305.83010929 303.92510666 312.94319303 311.0369351 C324.48474936 322.57630468 336.02853546 334.11344095 347.57373047 345.64916992 C358.7864929 356.85274846 369.99820093 368.05738043 381.20849609 379.26342773 C381.89990273 379.95457164 382.59130936 380.64571555 383.30366771 381.35780322 C386.77236565 384.82519609 390.24104291 388.29260964 393.70970988 391.76003349 C422.4699343 420.50989707 451.23378038 449.25613511 480 478 C478.44805246 481.32759923 476.69378051 483.48580485 474 486 C470.62234398 484.53489739 468.41607762 482.66492696 465.82210922 480.06820488 C464.99206367 479.24214143 464.16201812 478.41607797 463.30681968 477.5649823 C462.40020725 476.65254418 461.49359481 475.74010607 460.55950928 474.80001831 C459.58303092 473.82441199 458.60611323 472.84924524 457.62879395 471.87448132 C454.9425467 469.19271193 452.26258524 466.50473638 449.58359194 463.81572318 C446.69427003 460.91777542 443.79918205 458.02559834 440.90478516 455.13272095 C435.8901947 450.11917989 430.87928311 445.10198595 425.87084198 440.08230209 C418.62944631 432.82466184 411.38254332 425.5725415 404.13427833 418.32176246 C392.37499184 406.55809723 380.62017989 394.78997133 368.86816406 383.01904297 C357.45123473 371.58375947 346.03220958 360.15057554 334.61035156 348.72021484 C333.9064715 348.01580933 333.20259144 347.31140382 332.47738168 346.58565269 C328.9462578 343.05191877 325.4150926 339.51822614 321.88390684 335.98455405 C292.5828609 306.66277005 263.28906876 277.33374751 234 248 C228.12735356 252.87427839 222.73627568 258.12568964 217.3506012 263.52914429 C216.38781923 264.49148955 215.42481727 265.45361477 214.46161598 266.41554034 C211.83002009 269.04491082 209.20153461 271.67737117 206.57356703 274.31036735 C203.73362602 277.15464085 200.8907811 279.99600937 198.04829407 282.83773804 C193.12870512 287.75680352 188.21094535 292.67769154 183.2944355 297.59983444 C176.18604998 304.71635902 169.07489334 311.83010929 161.9630649 318.94319303 C150.42369532 330.48474936 138.88655905 342.02853546 127.35083008 353.57373047 C116.14725154 364.7864929 104.94261957 375.99820093 93.73657227 387.20849609 C92.6998564 388.24560604 92.6998564 388.24560604 91.64219678 389.30366771 C88.17480391 392.77236565 84.70739036 396.24104291 81.23996651 399.70970988 C52.49010293 428.4699343 23.74386489 457.23378038 -5 486 C-8.32759923 484.44805246 -10.48580485 482.69378051 -13 480 C-11.53489739 476.62234398 -9.66492696 474.41607762 -7.06820488 471.82210922 C-6.24214143 470.99206367 -5.41607797 470.16201812 -4.5649823 469.30681968 C-3.65254418 468.40020725 -2.74010607 467.49359481 -1.80001831 466.55950928 C-0.82441199 465.58303092 0.15075476 464.60611323 1.12551868 463.62879395 C3.80728807 460.9425467 6.49526362 458.26258524 9.18427682 455.58359194 C12.08222458 452.69427003 14.97440166 449.79918205 17.86727905 446.90478516 C22.88082011 441.8901947 27.89801405 436.87928311 32.91769791 431.87084198 C40.17533816 424.62944631 47.4274585 417.38254332 54.67823754 410.13427833 C66.44190277 398.37499184 78.21002867 386.62017989 89.98095703 374.86816406 C101.41624053 363.45123473 112.84942446 352.03220958 124.27978516 340.61035156 C124.98419067 339.9064715 125.68859618 339.20259144 126.41434731 338.47738168 C129.94808123 334.9462578 133.48177386 331.4150926 137.01544595 327.88390684 C166.33722995 298.5828609 195.66625249 269.28906876 225 240 C220.87014444 235.07621068 216.57936887 230.43958192 212.02357483 225.91004944 C211.00648891 224.89274023 211.00648891 224.89274023 209.9688558 223.85487932 C207.71215398 221.59886807 205.45190596 219.3464445 203.19165039 217.09399414 C201.56645316 215.47071748 199.9414845 213.84721196 198.31672668 212.22349548 C194.82493304 208.73485673 191.33159318 205.24777635 187.8370533 201.7618885 C182.3080874 196.24647133 176.78296114 190.72721854 171.25840759 185.2073822 C163.51003771 177.46633882 155.76027982 169.72668826 148.0090332 161.98852539 C147.51782033 161.49814033 147.02660746 161.00775527 146.52050935 160.50251006 C142.53591977 156.52466362 138.55123945 152.54690807 134.56655407 148.5691576 C131.0847732 145.09342918 127.60302817 141.61766487 124.12133789 138.1418457 C123.63103079 137.65236673 123.14072369 137.16288775 122.63555879 136.65857608 C114.44660853 128.48333408 106.25965978 120.30609093 98.07406801 112.12748617 C92.58551233 106.64390443 87.09452926 101.16276864 81.60165989 95.68350804 C78.1810744 92.27039806 74.76257646 88.85520306 71.3446331 85.4394474 C69.76331227 83.85999373 68.18112964 82.28140231 66.5980072 80.70375443 C64.43080322 78.54380715 62.26675007 76.3807493 60.10340881 74.2169342 C59.481994 73.59911436 58.8605792 72.98129451 58.22033364 72.34475285 C54.50184831 68.6175833 50.98042873 64.76723162 47.54778218 60.7749418 C45.34833341 58.25269182 43.01197409 55.88475039 40.6472168 53.51782227 C40.16172867 53.03058182 39.67624054 52.54334137 39.17604065 52.04133606 C37.60290414 50.46386944 36.0262241 48.8900044 34.44921875 47.31640625 C33.34285653 46.20936911 32.23664269 45.10218366 31.13056946 43.99485779 C28.82849243 41.69131637 26.52464117 39.38956874 24.21948242 37.08911133 C21.26256625 34.13793217 18.3102169 31.18223124 15.35914898 28.22520542 C13.08334999 25.94580098 10.80518484 23.66877349 8.52628517 21.39246941 C7.43587635 20.30272782 6.3462103 19.21224249 5.25729942 18.1210041 C3.74253855 16.60371264 2.22462531 15.08964802 0.70581055 13.57641602 C-0.15687943 12.71452164 -1.0195694 11.85262726 -1.90840149 10.96461487 C-3.843868 8.95873766 -3.843868 8.95873766 -6 8 C-6 7.34 -6 6.68 -6 6 C-4.34997172 4.64613064 -2.6825613 3.31321858 -1 2 C-0.67 1.34 -0.34 0.68 0 0 Z " fill="#0D0D0D" transform="translate(266,163)"/>
<path d="M0 0 C1.28909309 0.44648185 2.57857207 0.8918509 3.8684082 1.33618164 C7.31596531 2.53026214 10.75443144 3.74867901 14.19110107 4.97369385 C16.43811687 5.77243603 18.68768131 6.56360827 20.93798828 7.35302734 C24.74696605 8.69032209 28.55165204 10.03914735 32.35296631 11.39807129 C33.82037093 11.92234994 35.28850786 12.44458362 36.75738525 12.96472168 C38.81423023 13.6954946 40.86655422 14.43773365 42.91796875 15.18359375 C44.6817688 15.81865845 44.6817688 15.81865845 46.48120117 16.46655273 C49.15472038 17.65230237 50.68126088 18.39669937 52.375 20.75 C52.6875 24.125 52.6875 24.125 51.375 27.75 C44.95383337 32.95594585 29.70907611 38.75 21.375 38.75 C21.5915625 39.81476562 21.808125 40.87953125 22.03125 41.9765625 C26.67443868 65.68400843 26.67443868 65.68400843 23.14453125 71.92578125 C12.31620446 82.70630086 -5.17128819 85.85325141 -19.6875 86 C-20.52700195 86.0095874 -21.36650391 86.0191748 -22.23144531 86.02905273 C-36.42922093 85.95252611 -49.72667843 80.91153726 -60.625 71.75 C-65.02532991 65.14950513 -62.35062928 55.57815104 -61.125 48.125 C-60.91037109 46.76181641 -60.91037109 46.76181641 -60.69140625 45.37109375 C-60.34274111 43.16288117 -59.98721173 40.95602357 -59.625 38.75 C-60.883125 38.41226563 -62.14125 38.07453125 -63.4375 37.7265625 C-64.14519531 37.53658691 -64.85289062 37.34661133 -65.58203125 37.15087891 C-68.15178973 36.64663137 -70.14017967 36.97349365 -72.625 37.75 C-72.12743908 40.50641416 -72.12743908 40.50641416 -70.625 42.75 C-71.345 49.47 -71.345 49.47 -72.625 50.75 C-72.43162332 57.69795609 -70.6450736 64.46229514 -68.99804688 71.17578125 C-67.91442655 75.78811393 -67.33337662 79.97234043 -67.625 84.75 C-69.18106751 86.30606751 -70.68457371 85.87970769 -72.84375 85.8828125 C-74.11798828 85.88474609 -74.11798828 85.88474609 -75.41796875 85.88671875 C-76.31128906 85.88285156 -77.20460938 85.87898437 -78.125 85.875 C-79.01832031 85.87886719 -79.91164063 85.88273438 -80.83203125 85.88671875 C-81.68152344 85.88542969 -82.53101563 85.88414062 -83.40625 85.8828125 C-84.19064453 85.88168457 -84.97503906 85.88055664 -85.78320312 85.87939453 C-87.625 85.75 -87.625 85.75 -88.625 84.75 C-89.15688666 76.79969412 -87.16055777 69.56998456 -85.31445312 61.88671875 C-85.08564453 60.89800781 -84.85683594 59.90929687 -84.62109375 58.890625 C-84.40638428 57.99891602 -84.1916748 57.10720703 -83.97045898 56.18847656 C-83.60882727 53.63584227 -83.8394347 52.17646136 -84.625 49.75 C-85.4375 46.3125 -85.4375 46.3125 -85.625 42.75 C-83.875 40.1875 -83.875 40.1875 -81.625 37.75 C-80.58048562 35.77288349 -79.56801862 33.77749004 -78.625 31.75 C-79.23988281 31.65203125 -79.85476563 31.5540625 -80.48828125 31.453125 C-87.07327586 30.23484848 -87.07327586 30.23484848 -89.6875 27.9375 C-90.84813801 25.22934465 -91.13527955 23.66588314 -90.625 20.75 C-87.90631046 17.52742816 -85.51873821 16.04304931 -81.55615234 14.69116211 C-80.04340225 14.16557961 -80.04340225 14.16557961 -78.50009155 13.62937927 C-77.41467072 13.26570755 -76.32924988 12.90203583 -75.2109375 12.52734375 C-74.08611969 12.14058975 -72.96130188 11.75383575 -71.80239868 11.35536194 C-68.20524645 10.12175942 -64.60273393 8.90469186 -61 7.6875 C-58.59730333 6.86496249 -56.19495529 6.04140583 -53.79296875 5.21679688 C-18.8950456 -6.72061702 -18.8950456 -6.72061702 0 0 Z " fill="#070707" transform="translate(523.625,522.25)"/>
<path d="M0 0 C10.77715705 8.60858276 17.25030678 20.58686234 20 34 C21.02487002 45.15378017 19.34078257 54.64572848 12.8046875 63.83203125 C8.78371634 68.66241868 4.21241838 72.8528201 -1.375 75.75 C-5.11709221 78.95750761 -5.24161962 82.38480974 -6.25390625 87.0859375 C-7.38298322 91.49584022 -8.46847974 93.05706645 -12 96 C-22.08844499 101.67809824 -34.37271396 101.31295209 -45.375 98.75 C-59.2303263 94.7696737 -59.2303263 94.7696737 -62 92 C-62.07244053 89.98035801 -62.08377188 87.95832876 -62.0625 85.9375 C-62.05347656 84.83277344 -62.04445313 83.72804688 -62.03515625 82.58984375 C-62.02355469 81.73519531 -62.01195312 80.88054687 -62 80 C-60.35 80.33 -58.7 80.66 -57 81 C-56.67 83.64 -56.34 86.28 -56 89 C-37.03490331 94.98643835 -37.03490331 94.98643835 -17.9609375 91.0703125 C-15.84950084 90.03743321 -15.84950084 90.03743321 -14 88 C-13.32059533 85.57284794 -13.32059533 85.57284794 -12.875 82.875 C-12.70742188 81.96492188 -12.53984375 81.05484375 -12.3671875 80.1171875 C-12.18542969 79.06917969 -12.18542969 79.06917969 -12 78 C-13.25941406 78.32226562 -14.51882813 78.64453125 -15.81640625 78.9765625 C-30.0162558 82.10990169 -48.48987653 81.73717572 -62 76 C-63.81277978 73.80002454 -64.34843079 72.17112077 -65.03125 69.421875 C-66.38874805 66.02812987 -68.52630142 64.72291579 -71.4375 62.5625 C-77.85709412 57.68566548 -80.49772575 52.50682276 -83 45 C-83.91814866 31.97510035 -80.88628608 20.76724215 -72.921875 10.2578125 C-53.9275185 -11.59233885 -24.27172731 -17.89261949 0 0 Z " fill="#FBFBFB" transform="translate(532,184)"/>
<path d="M0 0 C4.62 0 9.24 0 14 0 C14.33 11.88 14.66 23.76 15 36 C25.04648568 25.31310189 25.04648568 25.31310189 35.04101562 14.57763672 C36.0489047 13.49114783 37.06188285 12.40935604 38.08007812 11.33251953 C40.65017167 8.59067957 42.74414905 5.85130275 44.75 2.6875 C46.0234375 1.1015625 46.0234375 1.1015625 48 0 C53.40118156 -0.57138248 58.5930841 -0.40455547 64 0 C61.65441559 3.67180175 59.3476141 6.87578784 56.1875 9.875 C52.90905143 13.0687654 49.85930736 16.36806181 46.875 19.8359375 C43.31333034 23.9466979 39.64665814 27.96469576 36 32 C37.379678 35.7591779 39.10817624 38.95972206 41.2734375 42.32421875 C41.92828125 43.34507568 42.583125 44.36593262 43.2578125 45.41772461 C43.95648438 46.49675049 44.65515625 47.57577637 45.375 48.6875 C46.0865625 49.79424072 46.798125 50.90098145 47.53125 52.04125977 C52.43609866 59.65788808 57.42460818 67.21797052 62.54443359 74.69213867 C66 79.78707035 66 79.78707035 66 82 C60.85800365 83.34417332 55.95702853 84.23582517 51 82 C45.91080266 76.97261478 42.84526941 70.12724259 39.55517578 63.85742188 C37.1864672 59.50524522 34.44878885 55.4224614 31.6875 51.3125 C27 44.28681899 27 44.28681899 27 42 C26.34 42 25.68 42 25 42 C24.75378906 42.59103516 24.50757813 43.18207031 24.25390625 43.79101562 C22.80897438 46.33652645 21.21795381 47.52890609 18.9375 49.34375 C14.16374979 53.99664578 14.04237515 58.19424047 13.94140625 64.65625 C13.96074219 65.9246875 13.98007812 67.193125 14 68.5 C13.98839844 69.799375 13.97679687 71.09875 13.96484375 72.4375 C13.94140673 75.62493538 13.96591081 78.81266075 14 82 C9.38 82 4.76 82 0 82 C0 54.94 0 27.88 0 0 Z " fill="#030303" transform="translate(301,373)"/>
<path d="M0 0 C1.02923584 0.35473389 2.05847168 0.70946777 3.11889648 1.07495117 C5.31365228 1.83285126 7.50656499 2.59610636 9.69775391 3.36425781 C13.20325616 4.58986011 16.71568784 5.79347438 20.23046875 6.9921875 C22.54967454 7.78588769 24.86869001 8.58014424 27.1875 9.375 C28.27466309 9.7474585 29.36182617 10.11991699 30.48193359 10.50366211 C35.79252775 12.34168862 40.99884401 14.25754759 46.125 16.5625 C43.77799814 19.26676919 41.68763035 20.29945522 38.31811523 21.44775391 C37.34378036 21.7846524 36.3694455 22.1215509 35.36558533 22.46865845 C34.31552811 22.82189178 33.26547089 23.17512512 32.18359375 23.5390625 C31.10497574 23.90977875 30.02635773 24.280495 28.91505432 24.66244507 C25.46696594 25.8457241 22.01492042 27.01692758 18.5625 28.1875 C15.10741785 29.36774052 11.65317396 30.55039974 8.19923401 31.73397827 C6.04883347 32.46989942 3.89759664 33.20338213 1.74546814 33.93423462 C0.77428543 34.2648288 -0.19689728 34.59542297 -1.19750977 34.93603516 C-2.05449966 35.2267691 -2.91148956 35.51750305 -3.79444885 35.81704712 C-5.89638094 36.52347525 -5.89638094 36.52347525 -7.875 37.5625 C-18.03805328 38.65206948 -26.55403804 36.18487412 -35.9375 32.6875 C-37.24088538 32.2208338 -38.54492131 31.75598047 -39.84960938 31.29296875 C-49.82685181 27.70552879 -49.82685181 27.70552879 -53.875 25.5625 C-53.875 25.2325 -53.875 24.9025 -53.875 24.5625 C-52.88693359 24.36092285 -51.89886719 24.1593457 -50.88085938 23.95166016 C-47.18290646 23.19674958 -43.48542977 22.43952817 -39.78808594 21.68164062 C-38.19381208 21.35517257 -36.59941312 21.02931479 -35.00488281 20.70410156 C-32.70083248 20.23406376 -30.39725474 19.76176594 -28.09375 19.2890625 C-27.39133179 19.14626862 -26.68891357 19.00347473 -25.96520996 18.85635376 C-21.23319658 17.88230119 -16.55555565 16.76017159 -11.875 15.5625 C-11.875 14.2425 -11.875 12.9225 -11.875 11.5625 C-26.94686035 11.80630951 -41.44334292 14.90824094 -56.01953125 18.59375 C-68.52391557 21.73804222 -68.52391557 21.73804222 -74.875 18.5625 C-73.875 15.5625 -73.875 15.5625 -71.93489075 14.56980896 C-71.08472885 14.28050003 -70.23456696 13.9911911 -69.35864258 13.69311523 C-67.91627983 13.19260902 -67.91627983 13.19260902 -66.44477844 12.68199158 C-65.39694687 12.33189529 -64.3491153 11.98179901 -63.26953125 11.62109375 C-61.66158943 11.06857689 -61.66158943 11.06857689 -60.02116394 10.50489807 C-56.58029569 9.32547236 -53.13407936 8.16261763 -49.6875 7 C-47.38179332 6.2126658 -45.07644973 5.42426744 -42.77148438 4.63476562 C-37.61548033 2.87163203 -32.45718509 1.11566989 -27.29211426 -0.6207428 C-25.32421206 -1.28570859 -23.36201167 -1.96752979 -21.40161133 -2.65429688 C-13.74483002 -5.02775851 -7.24369232 -2.57126854 0 0 Z " fill="#F9F9F9" transform="translate(518.875,528.4375)"/>
<path d="M0 0 C10.77715705 8.60858276 17.25030678 20.58686234 20 34 C21.02487002 45.15378017 19.34078257 54.64572848 12.8046875 63.83203125 C8.78371634 68.66241868 4.21241838 72.8528201 -1.375 75.75 C-5.11709221 78.95750761 -5.24161962 82.38480974 -6.25390625 87.0859375 C-7.38298322 91.49584022 -8.46847974 93.05706645 -12 96 C-22.08844499 101.67809824 -34.37271396 101.31295209 -45.375 98.75 C-59.2303263 94.7696737 -59.2303263 94.7696737 -62 92 C-62.07244053 89.98035801 -62.08377188 87.95832876 -62.0625 85.9375 C-62.05347656 84.83277344 -62.04445313 83.72804688 -62.03515625 82.58984375 C-62.02355469 81.73519531 -62.01195312 80.88054687 -62 80 C-60.35 80.33 -58.7 80.66 -57 81 C-56.67 83.64 -56.34 86.28 -56 89 C-37.03490331 94.98643835 -37.03490331 94.98643835 -17.9609375 91.0703125 C-15.84950084 90.03743321 -15.84950084 90.03743321 -14 88 C-13.32059533 85.57284794 -13.32059533 85.57284794 -12.875 82.875 C-12.70742188 81.96492188 -12.53984375 81.05484375 -12.3671875 80.1171875 C-12.18542969 79.06917969 -12.18542969 79.06917969 -12 78 C-13.25941406 78.32226562 -14.51882813 78.64453125 -15.81640625 78.9765625 C-30.0162558 82.10990169 -48.48987653 81.73717572 -62 76 C-63.81277978 73.80002454 -64.34843079 72.17112077 -65.03125 69.421875 C-66.38874805 66.02812987 -68.52630142 64.72291579 -71.4375 62.5625 C-77.85709412 57.68566548 -80.49772575 52.50682276 -83 45 C-83.91814866 31.97510035 -80.88628608 20.76724215 -72.921875 10.2578125 C-53.9275185 -11.59233885 -24.27172731 -17.89261949 0 0 Z M-67.25 12.9296875 C-69.92473329 16.0939925 -72.07622796 19.3346313 -74 23 C-74.598125 24.134375 -75.19625 25.26875 -75.8125 26.4375 C-78.38118188 33.86305739 -78.69962437 45.1764035 -75.6875 52.5 C-72.95277107 56.9053997 -68.53933928 59.93066127 -64.4609375 63.01953125 C-60.7832301 65.97921006 -59.73556151 68.46403738 -59 73 C-52.36141906 73.14286274 -45.72282759 73.28522848 -39.08422852 73.42724609 C-36.82511147 73.47563371 -34.56599687 73.52413576 -32.30688477 73.57275391 C-29.06266911 73.64255262 -25.81844492 73.7119419 -22.57421875 73.78125 C-21.56163498 73.80312378 -20.54905121 73.82499756 -19.50578308 73.84753418 C-18.56503433 73.86755493 -17.62428558 73.88757568 -16.6550293 73.90820312 C-15.41259712 73.93485046 -15.41259712 73.93485046 -14.14506531 73.96203613 C-9.02707141 74.05261558 -7.59524737 73.14642005 -3.625 69.8125 C-2.68914062 69.03519531 -1.75328125 68.25789063 -0.7890625 67.45703125 C5.9367538 61.53190737 11.62179558 55.75366729 12.23828125 46.375 C12.57716739 33.08822079 10.00282045 23.80928899 2 13 C1.401875 12.113125 0.80375 11.22625 0.1875 10.3125 C-6.84767263 2.87531751 -17.54707536 -2.3605789 -27.77734375 -3.23828125 C-43.22057367 -3.60097763 -56.61417851 1.65057035 -67.25 12.9296875 Z " fill="#0B0B0B" transform="translate(532,184)"/>
<path d="M0 0 C6.09046043 1.52882986 11.8621029 3.33326374 17.6875 5.6875 C33.84193959 11.38701007 46.57776576 6.76549799 61.80200195 0.734375 C64 0 64 0 67 0 C67.53477621 3.39378931 68.05033758 6.79023051 68.5625 10.1875 C68.71396484 11.14720703 68.86542969 12.10691406 69.02148438 13.09570312 C69.16005859 14.02705078 69.29863281 14.95839844 69.44140625 15.91796875 C69.57232666 16.77156982 69.70324707 17.6251709 69.83813477 18.50463867 C70.01504273 21.23190303 69.75039818 23.37514808 69 26 C61.47575146 32.57984698 49.89920583 36.60469062 40 37 C38.86433594 37.0515625 37.72867188 37.103125 36.55859375 37.15625 C21.59694666 37.5185906 10.89418558 32.99611529 -2 26 C-2.33 25.67 -2.66 25.34 -3 25 C-2.85821936 16.54769232 -1.99251696 8.22155058 0 0 Z " fill="#FBFBFB" transform="translate(471,564)"/>
<path d="M0 0 C6.26450807 3.73054975 9.64376914 8.02135951 11.6484375 15.0546875 C12.51550394 23.0901753 12.07981499 30.15501831 7.6484375 37.0546875 C3.89435824 41.59909924 0.07449603 44.62380284 -5.8984375 45.375 C-12.17971409 45.63527389 -17.27424221 44.94369878 -22.3515625 41.0546875 C-28.4062764 33.725297 -29.08636345 26.25155106 -28.3515625 17.0546875 C-27.17312909 10.11264341 -24.034783 5.24171321 -18.3515625 1.0546875 C-12.62238739 -1.73045798 -5.99620194 -2.41043334 0 0 Z " fill="#0E0E0E" transform="translate(438.3515625,705.9453125)"/>
<path d="M0 0 C4.62 0 9.24 0 14 0 C14 27.06 14 54.12 14 82 C9.38 82 4.76 82 0 82 C0 54.94 0 27.88 0 0 Z " fill="#020202" transform="translate(683,373)"/>
<path d="M0 0 C5.28 0 10.56 0 16 0 C15.67 1.32 15.34 2.64 15 4 C14.01 4.33 13.02 4.66 12 5 C14.31 13.91 16.62 22.82 19 32 C21.97 23.09 24.94 14.18 28 5 C30.31 5 32.62 5 35 5 C35.17128418 5.60473145 35.34256836 6.20946289 35.51904297 6.83251953 C36.30294487 9.59708376 37.08895446 12.36104454 37.875 15.125 C38.14441406 16.07632813 38.41382813 17.02765625 38.69140625 18.0078125 C38.95566406 18.9359375 39.21992187 19.8640625 39.4921875 20.8203125 C39.73308105 21.66867676 39.97397461 22.51704102 40.22216797 23.39111328 C41.08369989 26.28073352 42.04647274 29.13941822 43 32 C45.64 22.76 48.28 13.52 51 4 C49.68 4 48.36 4 47 4 C47.33 2.68 47.66 1.36 48 0 C52.29 0 56.58 0 61 0 C60 4 60 4 57 6 C56.02305843 8.14787305 56.02305843 8.14787305 55.3515625 10.69921875 C55.07062744 11.65497803 54.78969238 12.6107373 54.50024414 13.59545898 C54.21141357 14.61583252 53.92258301 15.63620605 53.625 16.6875 C53.01330876 18.7765079 52.40002273 20.86504948 51.78515625 22.953125 C51.48496582 23.97986328 51.18477539 25.00660156 50.87548828 26.06445312 C49.68664608 30.0506881 48.39650327 33.99782221 47.0625 37.9375 C46.66160156 39.12214844 46.26070312 40.30679688 45.84765625 41.52734375 C45.56792969 42.34332031 45.28820312 43.15929687 45 44 C42.69 44 40.38 44 38 44 C34.88988277 36.14286174 32.47865559 28.07277553 30 20 C29.6443396 21.0372522 29.6443396 21.0372522 29.28149414 22.09545898 C28.21150457 25.21051561 27.13706435 28.32401869 26.0625 31.4375 C25.50272461 33.07041992 25.50272461 33.07041992 24.93164062 34.73632812 C24.57392578 35.77080078 24.21621094 36.80527344 23.84765625 37.87109375 C23.51773682 38.82943115 23.18781738 39.78776855 22.84790039 40.77514648 C22 43 22 43 21 44 C18.66702567 44.04092937 16.33294775 44.04241723 14 44 C10.54523368 34.18601781 7.63505719 24.29561384 4.96826172 14.23974609 C4.60498779 12.87390381 4.60498779 12.87390381 4.234375 11.48046875 C4.02006836 10.66473389 3.80576172 9.84899902 3.58496094 9.00854492 C3.05172003 6.95404355 3.05172003 6.95404355 2 5 C1.01 4.67 0.02 4.34 -1 4 C-0.67 2.68 -0.34 1.36 0 0 Z " fill="#0A0A0A" transform="translate(475,706)"/>
<path d="M0 0 C3.49971199 -0.1173794 6.99890955 -0.18763961 10.5 -0.25 C11.48226563 -0.28351562 12.46453125 -0.31703125 13.4765625 -0.3515625 C19.63569095 -0.43368421 25.06046109 -0.02863535 30 4 C32.29740649 7.70555498 32.38037728 10.66369903 32 15 C29.98498885 19.97826285 26.34496707 22.13068213 22 25 C25.49163169 31.22622818 28.91761456 36.63920485 36 39 C35.6875 40.875 35.6875 40.875 35 43 C32 45 32 45 29.25 45.125 C22.53946751 42.80212337 19.18458697 36.69771334 16.1875 30.5625 C15.80980469 29.71816406 15.43210937 28.87382813 15.04296875 28.00390625 C14.16470541 25.83779873 14.16470541 25.83779873 12 25 C12 29.95 12 34.9 12 40 C13.65 40 15.3 40 17 40 C16.67 41.32 16.34 42.64 16 44 C10.39 44 4.78 44 -1 44 C-0.67 42.68 -0.34 41.36 0 40 C0.99 39.505 0.99 39.505 2 39 C2.33 27.45 2.66 15.9 3 4 C1.68 4 0.36 4 -1 4 C-0.67 2.68 -0.34 1.36 0 0 Z " fill="#0F0F0F" transform="translate(451,778)"/>
<path d="M0 0 C5.28 0 10.56 0 16 0 C15.67 1.32 15.34 2.64 15 4 C14.01 4 13.02 4 12 4 C12 9.28 12 14.56 12 20 C17.94 20 23.88 20 30 20 C30 15.05 30 10.1 30 5 C28.68 5 27.36 5 26 5 C26.33 3.35 26.66 1.7 27 0 C32.28 0 37.56 0 43 0 C42.67 1.32 42.34 2.64 42 4 C40.68 4 39.36 4 38 4 C38 15.88 38 27.76 38 40 C39.65 40 41.3 40 43 40 C42.34 41.32 41.68 42.64 41 44 C36.05 44 31.1 44 26 44 C26.33 42.68 26.66 41.36 27 40 C27.99 40 28.98 40 30 40 C30 35.05 30 30.1 30 25 C24.06 25 18.12 25 12 25 C12 29.95 12 34.9 12 40 C13.32 40 14.64 40 16 40 C15.67 41.32 15.34 42.64 15 44 C9.72 44 4.44 44 -1 44 C-0.67 42.68 -0.34 41.36 0 40 C1.32 40 2.64 40 4 40 C3.505 22.675 3.505 22.675 3 5 C1.68 4.67 0.36 4.34 -1 4 C-0.67 2.68 -0.34 1.36 0 0 Z " fill="#0A0A0A" transform="translate(635,778)"/>
<path d="M0 0 C3.49971199 -0.1173794 6.99890955 -0.18763961 10.5 -0.25 C11.48226562 -0.28351562 12.46453125 -0.31703125 13.4765625 -0.3515625 C19.85491633 -0.43660722 24.7113309 0.25218364 30 4 C32.53063075 6.92604181 32.95487657 8.58636852 33.375 12.4375 C32.83318335 17.58475813 31.38707709 20.68592697 27.625 24.25 C22.22418195 27.85054537 18.358506 28.21554258 12 28 C12 31.96 12 35.92 12 40 C13.65 40 15.3 40 17 40 C16.67 41.32 16.34 42.64 16 44 C10.39 44 4.78 44 -1 44 C-0.67 42.68 -0.34 41.36 0 40 C1.32 40 2.64 40 4 40 C4 28.12 4 16.24 4 4 C2.35 4 0.7 4 -1 4 C-0.67 2.68 -0.34 1.36 0 0 Z " fill="#0B0B0B" transform="translate(750,778)"/>
<path d="M0 0 C3.53615068 -0.71737483 6.48138733 -0.88217366 10 0 C13.40314753 3.18814723 15.60279238 7.02707274 18 11 C19.42972213 13.15102338 20.86707021 15.29700014 22.3125 17.4375 C22.94800781 18.40558594 23.58351563 19.37367188 24.23828125 20.37109375 C25.75283475 22.63117026 27.36762304 24.82349739 29 27 C29.33 19.74 29.66 12.48 30 5 C28.68 5 27.36 5 26 5 C26.33 3.35 26.66 1.7 27 0 C31.29 0 35.58 0 40 0 C39.67 1.32 39.34 2.64 39 4 C37.68 4 36.36 4 35 4 C35 16.87 35 29.74 35 43 C32.525 43.495 32.525 43.495 30 44 C22.43336165 34.03306852 15.77495128 23.51528896 9 13 C8.67 21.91 8.34 30.82 8 40 C9.65 40 11.3 40 13 40 C12.67 41.32 12.34 42.64 12 44 C7.71 44 3.42 44 -1 44 C-0.67 42.68 -0.34 41.36 0 40 C0.99 39.505 0.99 39.505 2 39 C2.33 27.45 2.66 15.9 3 4 C1.68 4 0.36 4 -1 4 C-0.67 2.68 -0.34 1.36 0 0 Z " fill="#0B0B0B" transform="translate(513,778)"/>
<path d="M0 0 C3.53285212 -0.71670566 6.48088505 -0.86079071 10 0 C12.92699455 2.63262887 14.83918849 5.75267229 16.85498047 9.11523438 C18.61126097 12.00616944 20.48365057 14.81953635 22.34204102 17.64550781 C24.58374859 21.08250667 26.78802588 24.54379044 29 28 C29.33 20.41 29.66 12.82 30 5 C28.68 5 27.36 5 26 5 C26.33 3.35 26.66 1.7 27 0 C30.96 0 34.92 0 39 0 C39 1.32 39 2.64 39 4 C37.68 4 36.36 4 35 4 C35 16.87 35 29.74 35 43 C32.525 43.495 32.525 43.495 30 44 C22.43336165 34.03306852 15.77495128 23.51528896 9 13 C8.67 21.91 8.34 30.82 8 40 C9.65 40 11.3 40 13 40 C12.67 41.32 12.34 42.64 12 44 C7.71 44 3.42 44 -1 44 C-0.67 42.68 -0.34 41.36 0 40 C0.99 40 1.98 40 3 40 C3 28.45 3 16.9 3 5 C1.68 5 0.36 5 -1 5 C-0.67 3.35 -0.34 1.7 0 0 Z " fill="#0A0A0A" transform="translate(264,778)"/>
<path d="M0 0 C5.28 0 10.56 0 16 0 C15.67 1.32 15.34 2.64 15 4 C13.68 4 12.36 4 11 4 C11.33 9.28 11.66 14.56 12 20 C15.96 14.72 19.92 9.44 24 4 C22.68 4 21.36 4 20 4 C20.33 2.68 20.66 1.36 21 0 C25.95 0 30.9 0 36 0 C35.67 1.32 35.34 2.64 35 4 C33.01083669 5.02138598 31.00910283 6.01841667 29 7 C26.35228807 9.48778227 26.35228807 9.48778227 24.0625 12.375 C23.26972656 13.31085937 22.47695313 14.24671875 21.66015625 15.2109375 C19.82062101 17.79417366 19.82062101 17.79417366 19.9140625 20.3359375 C21.5420646 24.32981316 23.85774473 27.71870911 26.3125 31.25 C26.79912109 31.9821875 27.28574219 32.714375 27.78710938 33.46875 C28.26599609 34.16484375 28.74488281 34.8609375 29.23828125 35.578125 C29.67180908 36.21137695 30.10533691 36.84462891 30.55200195 37.49707031 C32.29004906 39.30105244 33.55950661 39.61786797 36 40 C35.67 41.32 35.34 42.64 35 44 C31.30253615 45.15495617 28.67076054 45.32244618 25 44 C20.91828302 39.78593842 17.99499424 34.52465668 15.078125 29.46875 C14.72234375 28.9840625 14.3665625 28.499375 14 28 C13.34 28 12.68 28 12 28 C11.67 31.96 11.34 35.92 11 40 C12.65 40 14.3 40 16 40 C15.67 41.32 15.34 42.64 15 44 C9.72 44 4.44 44 -1 44 C-0.67 42.68 -0.34 41.36 0 40 C0.99 40 1.98 40 3 40 C3 28.45 3 16.9 3 5 C1.68 5 0.36 5 -1 5 C-0.67 3.35 -0.34 1.7 0 0 Z " fill="#090909" transform="translate(283,706)"/>
<path d="M0 0 C3.56132566 -0.78306812 6.45682116 -0.94530709 10 0 C13.59595961 3.45276445 15.97005658 7.54322048 18.5 11.8125 C19.20505069 12.94540889 19.91335939 14.07629707 20.625 15.20507812 C21.92034706 17.27887895 23.20125718 19.36181681 24.46289062 21.45629883 C25.59656461 23.33237082 26.78409732 25.17614598 28 27 C28.33 19.41 28.66 11.82 29 4 C27.68 4 26.36 4 25 4 C25.33 2.68 25.66 1.36 26 0 C30.29 0 34.58 0 39 0 C38.67 1.32 38.34 2.64 38 4 C36.68 4 35.36 4 34 4 C34 16.87 34 29.74 34 43 C31.525 43.495 31.525 43.495 29 44 C22.4 34.1 15.8 24.2 9 14 C8.67 22.58 8.34 31.16 8 40 C9.32 40 10.64 40 12 40 C11.67 41.32 11.34 42.64 11 44 C6.71 44 2.42 44 -2 44 C-1.67 42.68 -1.34 41.36 -1 40 C0.32 40 1.64 40 3 40 C3 28.12 3 16.24 3 4 C1.68 4 0.36 4 -1 4 C-0.67 2.68 -0.34 1.36 0 0 Z " fill="#0A0A0A" transform="translate(562,706)"/>
<path d="M0 0 C3.96470024 0.04095327 5.19030205 0.5521647 8.02783203 3.40136719 C10.63900188 6.86379073 12.86444531 10.56118346 15.09765625 14.2734375 C15.90757586 15.55933266 16.7206997 16.84321555 17.53710938 18.125 C22.83067041 26.48946583 22.83067041 26.48946583 24.53515625 29.8984375 C24.53515625 21.9784375 24.53515625 14.0584375 24.53515625 5.8984375 C23.21515625 5.5684375 21.89515625 5.2384375 20.53515625 4.8984375 C20.86515625 3.5784375 21.19515625 2.2584375 21.53515625 0.8984375 C25.82515625 0.8984375 30.11515625 0.8984375 34.53515625 0.8984375 C34.20515625 2.2184375 33.87515625 3.5384375 33.53515625 4.8984375 C32.21515625 4.8984375 30.89515625 4.8984375 29.53515625 4.8984375 C29.53515625 17.7684375 29.53515625 30.6384375 29.53515625 43.8984375 C27.06015625 44.3934375 27.06015625 44.3934375 24.53515625 44.8984375 C17.93515625 34.9984375 11.33515625 25.0984375 4.53515625 14.8984375 C4.20515625 23.4784375 3.87515625 32.0584375 3.53515625 40.8984375 C4.85515625 40.8984375 6.17515625 40.8984375 7.53515625 40.8984375 C7.20515625 42.2184375 6.87515625 43.5384375 6.53515625 44.8984375 C2.24515625 44.8984375 -2.04484375 44.8984375 -6.46484375 44.8984375 C-6.13484375 43.5784375 -5.80484375 42.2584375 -5.46484375 40.8984375 C-4.14484375 40.8984375 -2.82484375 40.8984375 -1.46484375 40.8984375 C-1.46484375 29.3484375 -1.46484375 17.7984375 -1.46484375 5.8984375 C-3.11484375 5.8984375 -4.76484375 5.8984375 -6.46484375 5.8984375 C-5.43222173 1.3253971 -4.73311967 0.62189656 0 0 Z " fill="#080808" transform="translate(350.46484375,705.1015625)"/>
<path d="M0 0 C1.20970459 0.00523682 2.41940918 0.01047363 3.66577148 0.01586914 C4.97094727 0.0190918 6.27612305 0.02231445 7.62084961 0.02563477 C9.00952213 0.03399138 10.39819401 0.04245634 11.78686523 0.05102539 C13.17944179 0.05603873 14.57202005 0.06060193 15.96459961 0.06469727 C19.38456394 0.07653105 22.80444367 0.09301659 26.22436523 0.11352539 C26.22436523 4.07352539 26.22436523 8.03352539 26.22436523 12.11352539 C24.90436523 12.11352539 23.58436523 12.11352539 22.22436523 12.11352539 C22.22436523 9.80352539 22.22436523 7.49352539 22.22436523 5.11352539 C17.60436523 5.11352539 12.98436523 5.11352539 8.22436523 5.11352539 C8.22436523 10.06352539 8.22436523 15.01352539 8.22436523 20.11352539 C12.18436523 19.78352539 16.14436523 19.45352539 20.22436523 19.11352539 C20.22436523 21.09352539 20.22436523 23.07352539 20.22436523 25.11352539 C16.26436523 25.11352539 12.30436523 25.11352539 8.22436523 25.11352539 C8.22436523 29.73352539 8.22436523 34.35352539 8.22436523 39.11352539 C13.17436523 39.11352539 18.12436523 39.11352539 23.22436523 39.11352539 C23.22436523 36.47352539 23.22436523 33.83352539 23.22436523 31.11352539 C24.87436523 31.44352539 26.52436523 31.77352539 28.22436523 32.11352539 C28.22436523 36.07352539 28.22436523 40.03352539 28.22436523 44.11352539 C17.33436523 44.11352539 6.44436523 44.11352539 -4.77563477 44.11352539 C-4.11563477 42.79352539 -3.45563477 41.47352539 -2.77563477 40.11352539 C-1.78563477 40.11352539 -0.79563477 40.11352539 0.22436523 40.11352539 C0.22436523 28.56352539 0.22436523 17.01352539 0.22436523 5.11352539 C-1.42563477 5.11352539 -3.07563477 5.11352539 -4.77563477 5.11352539 C-3.65472144 0.14948065 -3.65472144 0.14948065 0 0 Z " fill="#0B0B0B" transform="translate(395.775634765625,777.886474609375)"/>
<path d="M0 0 C0.78375 0.04125 1.5675 0.0825 2.375 0.125 C2.78492188 0.90746094 3.19484375 1.68992188 3.6171875 2.49609375 C4.15601563 3.50800781 4.69484375 4.51992187 5.25 5.5625 C5.78367187 6.57183594 6.31734375 7.58117187 6.8671875 8.62109375 C8.13154114 11.22640442 8.13154114 11.22640442 10.375 12.125 C14.36635272 12.38530561 16.98006742 12.26528358 20.375 10.125 C21.90942032 8.1984106 21.90942032 8.1984106 23.125 6 C23.55296875 5.27554688 23.9809375 4.55109375 24.421875 3.8046875 C24.73640625 3.25039062 25.0509375 2.69609375 25.375 2.125 C27.85 2.62 27.85 2.62 30.375 3.125 C32.03100921 7.20213659 30.60844201 10.77493128 29.5 14.8125 C27.2417309 23.57623276 26.60080097 32.10425126 26.375 41.125 C25.055 41.125 23.735 41.125 22.375 41.125 C21.20073736 38.77647472 21.25991827 37.38725935 21.27734375 34.7734375 C21.28056641 33.92265625 21.28378906 33.071875 21.28710938 32.1953125 C21.29548828 31.30585938 21.30386719 30.41640625 21.3125 29.5 C21.31701172 28.6028125 21.32152344 27.705625 21.32617188 26.78125 C21.33797409 24.56243352 21.35443845 22.34374982 21.375 20.125 C20.385 20.455 19.395 20.785 18.375 21.125 C11.46017548 21.8624201 7.08788201 21.09917879 1.375 17.125 C1.39820313 18.01960938 1.42140625 18.91421875 1.4453125 19.8359375 C1.55543474 27.21412758 1.22159266 33.96945343 -0.625 41.125 C-1.945 40.795 -3.265 40.465 -4.625 40.125 C-4.67435509 34.74985095 -4.71069802 29.37483315 -4.73486328 23.99951172 C-4.74493484 22.17006127 -4.75859276 20.34062697 -4.77587891 18.51123047 C-4.80007677 15.88505066 -4.81147132 13.25908325 -4.8203125 10.6328125 C-4.83063507 9.81193146 -4.84095764 8.99105042 -4.85159302 8.14529419 C-4.85199184 6.13710858 -4.7474954 4.12944618 -4.625 2.125 C-2.625 0.125 -2.625 0.125 0 0 Z " fill="#0A0A0A" transform="translate(487.625,210.875)"/>
<path d="M0 0 C2.6875 1.6875 2.6875 1.6875 4.6875 4.6875 C4.9375 7.25 4.9375 7.25 4.6875 9.6875 C4.0275 10.3475 3.3675 11.0075 2.6875 11.6875 C1.3675 11.6875 0.0475 11.6875 -1.3125 11.6875 C-1.9725 9.3775 -2.6325 7.0675 -3.3125 4.6875 C-4.77042884 4.63350264 -6.22892712 4.59470823 -7.6875 4.5625 C-8.90566406 4.52769531 -8.90566406 4.52769531 -10.1484375 4.4921875 C-12.52592243 4.47379949 -12.52592243 4.47379949 -14.3125 6.6875 C-14.97993877 9.10094667 -14.97993877 9.10094667 -14.3125 11.6875 C-11.62590578 13.94989514 -9.03461784 15.34889929 -5.86328125 16.8359375 C-0.34145871 19.42764494 3.54305882 21.34194999 6.6875 26.6875 C7.46280154 31.5718997 7.26001062 34.34863625 4.5625 38.5 C1.22438146 42.5501272 -1.79936389 44.40748483 -7.1171875 45 C-13.62456276 45.2596459 -18.29863191 45.03285235 -23.3125 40.6875 C-24.4375 37.125 -24.4375 37.125 -24.3125 33.6875 C-23.125 31.75 -23.125 31.75 -21.3125 30.6875 C-19.9925 30.6875 -18.6725 30.6875 -17.3125 30.6875 C-16.838125 31.821875 -16.36375 32.95625 -15.875 34.125 C-14.67627917 37.44490166 -14.67627917 37.44490166 -13.3125 38.6875 C-11.27979438 38.92570921 -11.27979438 38.92570921 -8.9375 38.9375 C-7.75027344 38.97617187 -7.75027344 38.97617187 -6.5390625 39.015625 C-3.7907054 38.61060395 -2.95769135 37.88968403 -1.3125 35.6875 C-0.56234805 32.73058291 -0.56234805 32.73058291 -1.3125 29.6875 C-4.10662478 27.20383353 -6.90092211 25.88217254 -10.27734375 24.28515625 C-11.34082031 23.77855469 -12.40429688 23.27195312 -13.5 22.75 C-14.52480469 22.28722656 -15.54960938 21.82445312 -16.60546875 21.34765625 C-19.70516997 19.44668509 -20.81760236 17.97326494 -22.3125 14.6875 C-23.16548096 10.63007705 -22.759152 7.5249725 -20.8125 3.875 C-14.86896218 -1.32559559 -7.45024324 -2.95198317 0 0 Z " fill="#0C0C0C" transform="translate(601.3125,778.3125)"/>
<path d="M0 0 C3.24033097 2.3061815 4.74959563 5.24878689 6 9 C6.17466964 11.78612399 6.27697439 14.52492412 6.3125 17.3125 C6.34150391 18.05951172 6.37050781 18.80652344 6.40039062 19.57617188 C6.47155877 25.81159616 4.56795192 29.34349802 0.1875 33.875 C-3.100727 35.56608817 -5.36046605 35.51081178 -9 35 C-12.73649147 32.09383997 -14.62211931 29.47962974 -16 25 C-16.33082089 22.01676318 -16.37010286 19.06199659 -16.375 16.0625 C-16.39949219 15.27681641 -16.42398437 14.49113281 -16.44921875 13.68164062 C-16.47616378 8.31508791 -15.57492988 5.24605984 -12 1 C-8.26410832 -0.86794584 -4.0569496 -0.68891597 0 0 Z " fill="#FBFBFB" transform="translate(435,711)"/>
<path d="M0 0 C5.61 0 11.22 0 17 0 C16.67 1.32 16.34 2.64 16 4 C14.68 4 13.36 4 12 4 C14.64 8.62 17.28 13.24 20 18 C22.79442919 15.20557081 24.01247132 13.2983705 25.6875 9.8125 C26.12449219 8.91144531 26.56148437 8.01039063 27.01171875 7.08203125 C27.33785156 6.39496094 27.66398438 5.70789063 28 5 C26.68 5 25.36 5 24 5 C24.33 3.35 24.66 1.7 25 0 C29.62 0 34.24 0 39 0 C38.67 1.32 38.34 2.64 38 4 C36.68800647 4.70773949 35.35213854 5.37235074 34 6 C31.92396119 8.48825678 30.401314 11.30621174 28.8125 14.125 C28.36342285 14.92019043 27.9143457 15.71538086 27.45166016 16.53466797 C23.35488093 24.3079255 22.59864576 31.33547027 23 40 C24.32 40 25.64 40 27 40 C26.67 41.32 26.34 42.64 26 44 C20.72 44 15.44 44 10 44 C10.33 42.68 10.66 41.36 11 40 C12.32 40 13.64 40 15 40 C16.0602493 26.54298962 10.57405104 15.28827418 2 5 C1.01 4.67 0.02 4.34 -1 4 C-0.67 2.68 -0.34 1.36 0 0 Z " fill="#090909" transform="translate(683,706)"/>
<path d="M0 0 C12.54 0 25.08 0 38 0 C38 3.63 38 7.26 38 11 C36.35 11.33 34.7 11.66 33 12 C33 9.69 33 7.38 33 5 C29.7 5 26.4 5 23 5 C23 16.55 23 28.1 23 40 C24.65 40 26.3 40 28 40 C27.67 41.32 27.34 42.64 27 44 C21.06 44 15.12 44 9 44 C9.66 42.68 10.32 41.36 11 40 C12.32 40 13.64 40 15 40 C15 28.45 15 16.9 15 5 C11.37 5 7.74 5 4 5 C4 7.31 4 9.62 4 12 C2.68 11.67 1.36 11.34 0 11 C0 7.37 0 3.74 0 0 Z " fill="#080808" transform="translate(328,778)"/>
<path d="M0 0 C5.61 0 11.22 0 17 0 C16.67 1.32 16.34 2.64 16 4 C14.35 4 12.7 4 11 4 C11 15.55 11 27.1 11 39 C15.62 39 20.24 39 25 39 C25.33 36.03 25.66 33.06 26 30 C27.32 30.33 28.64 30.66 30 31 C30 35.29 30 39.58 30 44 C19.77 44 9.54 44 -1 44 C-0.67 42.68 -0.34 41.36 0 40 C0.99 40 1.98 40 3 40 C3 28.45 3 16.9 3 5 C1.68 5 0.36 5 -1 5 C-0.67 3.35 -0.34 1.7 0 0 Z " fill="#060606" transform="translate(628,706)"/>
<path d="M0 0 C5.28 0 10.56 0 16 0 C15.67 1.32 15.34 2.64 15 4 C13.68 4 12.36 4 11 4 C11 15.88 11 27.76 11 40 C12.65 40 14.3 40 16 40 C15.67 41.32 15.34 42.64 15 44 C9.72 44 4.44 44 -1 44 C-0.67 42.68 -0.34 41.36 0 40 C1.485 39.505 1.485 39.505 3 39 C3 27.78 3 16.56 3 5 C1.68 5 0.36 5 -1 5 C-0.67 3.35 -0.34 1.7 0 0 Z " fill="#0C0C0C" transform="translate(706,778)"/>
<path d="M0 0 C5.28 0 10.56 0 16 0 C15.67 1.32 15.34 2.64 15 4 C13.68 4 12.36 4 11 4 C11 15.88 11 27.76 11 40 C12.65 40 14.3 40 16 40 C15.67 41.32 15.34 42.64 15 44 C9.72 44 4.44 44 -1 44 C-0.67 42.68 -0.34 41.36 0 40 C0.99 40 1.98 40 3 40 C3 28.45 3 16.9 3 5 C1.68 5 0.36 5 -1 5 C-0.67 3.35 -0.34 1.7 0 0 Z " fill="#080808" transform="translate(220,778)"/>
<path d="M0 0 C29.34541547 -0.20638953 29.34541547 -0.20638953 41 1 C41.495 2.98 41.495 2.98 42 5 C28.71245736 9.82139776 14.96911934 9.67541426 2 4 C1.34 3.67 0.68 3.34 0 3 C0 2.01 0 1.02 0 0 Z " fill="#0B0B0B" transform="translate(473,291)"/>
<path d="M0 0 C7 0 7 0 9.9375 1.375 C12.66468929 4.84596819 12.65890616 7.26151604 12.41015625 11.5859375 C11.80173382 15.16693808 10.87779106 16.76971193 8 19 C4.04 19.495 4.04 19.495 0 20 C0 13.4 0 6.8 0 0 Z " fill="#FAFAFA" transform="translate(762,782)"/>
<path d="M0 0 C1.77734375 0.16015625 1.77734375 0.16015625 4 1 C10.0270923 8.86762371 14.797257 18.90141138 14 29 C12.68 29 11.36 29 10 29 C5.4860457 24.09352794 3.19782745 17.34589536 1.0625 11.125 C0.83892822 10.48296631 0.61535645 9.84093262 0.38500977 9.17944336 C-0.70647589 5.79659301 -1.36205787 3.36707472 0 0 Z " fill="#0C0C0C" transform="translate(467,137)"/>
<path d="M0 0 C0.84755859 0.00322266 1.69511719 0.00644531 2.56835938 0.00976562 C3.44943359 0.01814453 4.33050781 0.02652344 5.23828125 0.03515625 C6.57729492 0.04192383 6.57729492 0.04192383 7.94335938 0.04882812 C10.14590112 0.06060642 12.34830724 0.07705461 14.55078125 0.09765625 C14.88078125 1.41765625 15.21078125 2.73765625 15.55078125 4.09765625 C8.72820574 6.78126659 2.27358877 7.75961123 -5.01171875 8.28515625 C-6.52475586 8.40793945 -6.52475586 8.40793945 -8.06835938 8.53320312 C-10.52803968 8.73137642 -12.98803453 8.91931885 -15.44921875 9.09765625 C-15.44921875 7.77765625 -15.44921875 6.45765625 -15.44921875 5.09765625 C-14.17966575 4.44930971 -12.90852169 3.8040781 -11.63671875 3.16015625 C-10.92902344 2.80050781 -10.22132813 2.44085938 -9.4921875 2.0703125 C-6.19229974 0.49923783 -3.60913032 -0.02422235 0 0 Z " fill="#080808" transform="translate(573.44921875,191.90234375)"/>
<path d="M0 0 C8.18096477 1.18136675 15.04572334 6.33840417 20.125 12.6875 C22.16358359 15.43324775 23.37583392 17.62798083 24 21 C22.28515625 21.703125 22.28515625 21.703125 20 22 C11.98901005 17.37333201 5.40214297 9.62122771 -1 3 C-0.67 2.01 -0.34 1.02 0 0 Z " fill="#090909" transform="translate(422,172)"/>
<path d="M0 0 C7 0 7 0 10 2 C12.32822547 5.4923382 12.5763791 7.10329004 11.77734375 11.12890625 C10.39568177 14.45461525 8.16422053 15.53959053 5 17 C3.35 17 1.7 17 0 17 C0 11.39 0 5.78 0 0 Z " fill="#F6F6F6" transform="translate(463,782)"/>
<path d="M0 0 C0 1.32 0 2.64 0 4 C-6.64072558 6.89777116 -12.50833532 8.57686101 -19.5703125 6.09765625 C-21.75825552 5.1340011 -23.88766642 4.118588 -26 3 C-25.67 2.01 -25.34 1.02 -25 0 C-17.75705641 -2.94456118 -7.55298665 -1.18478222 0 0 Z " fill="#0C0C0C" transform="translate(507,307)"/>
<path d="M0 0 C1.32 0.33 2.64 0.66 4 1 C3.09495828 9.67775296 2.21443909 17.81779142 -1 26 C-2.32 25.67 -3.64 25.34 -5 25 C-5.95744681 7.65957447 -5.95744681 7.65957447 0 0 Z " fill="#0E0E0E" transform="translate(527,143)"/>
<path d="M0 0 C2.39763185 2.39763185 2.34280586 3.33273498 2.625 6.625 C2.69976562 7.44226563 2.77453125 8.25953125 2.8515625 9.1015625 C2.92503906 10.04128906 2.92503906 10.04128906 3 11 C1.35 11 -0.3 11 -2 11 C-1.85892253 9.54119891 -1.71197585 8.08296449 -1.5625 6.625 C-1.48128906 5.81289063 -1.40007812 5.00078125 -1.31640625 4.1640625 C-1 2 -1 2 0 0 Z " fill="#E6E6E6" transform="translate(445,590)"/>
</svg>
